<svg width="22" height="22" viewBox="0 0 22 22" fill="none" xmlns="http://www.w3.org/2000/svg">
<g clip-path="url(#clip0)">
<path fill-rule="evenodd" clip-rule="evenodd" d="M17.0896 20.3199H10.4104C9.71048 20.3193 9.03944 20.0407 8.54482 19.5455L7.30399 18.3046C7.05286 18.0896 6.9435 17.7519 7.02083 17.4304C7.09815 17.109 7.3491 16.858 7.67057 16.7806C7.99203 16.7033 8.32976 16.8127 8.54482 17.0639L9.7856 18.3046C9.95167 18.4694 10.1765 18.5612 10.4104 18.5599H17.0896C17.5064 18.571 17.8738 18.2881 17.9696 17.8822L19.4392 11.7222C19.5022 11.4564 19.438 11.1764 19.2657 10.9644C19.0933 10.7524 18.8323 10.6325 18.5592 10.6399H11.9856C11.3766 10.6395 10.811 10.3244 10.4903 9.80659C10.1696 9.28882 10.1394 8.64206 10.4104 8.09665L11.9328 5.06064C12.0871 4.75238 12.0722 4.38653 11.8936 4.09175C11.7149 3.79696 11.3974 3.61451 11.0528 3.60862L7.25119 9.31105C6.53109 10.3897 6.08691 11.6286 5.95762 12.919L5.45601 17.9527C5.31994 19.3067 4.17687 20.3354 2.81601 20.3286H2.64C1.18197 20.3286 0 19.1467 0 17.6886V10.6486C0 9.19059 1.18197 8.00862 2.64 8.00862C3.12601 8.00862 3.52 8.40261 3.52 8.88862C3.52 9.37463 3.12601 9.76862 2.64 9.76862C2.15399 9.76862 1.76 10.1626 1.76 10.6486V17.6886C1.76 18.1746 2.15399 18.5686 2.64 18.5686H2.8072C3.26082 18.5709 3.64185 18.228 3.6872 17.7767L4.18881 12.743C4.34838 11.1701 4.88904 9.65983 5.76399 8.34302L9.5656 2.64064C9.89143 2.15227 10.4393 1.85851 11.0264 1.85742C11.9858 1.85609 12.8772 2.35248 13.3813 3.16872C13.8854 3.98497 13.93 5.00422 13.4992 5.86141L11.9768 8.89743H18.5504C19.3575 8.89731 20.1202 9.26638 20.621 9.89924C21.1218 10.5321 21.3056 11.3592 21.12 12.1446L19.6504 18.3046C19.3627 19.4859 18.3054 20.3179 17.0896 20.3199Z" fill="white"/>
</g>
<defs>
<clipPath id="clip0">
<rect width="22" height="19.36" fill="white" transform="translate(0 1.04785)"/>
</clipPath>
</defs>
</svg>
