<svg width="22" height="22" viewBox="0 0 22 22" fill="none" xmlns="http://www.w3.org/2000/svg">
<g clip-path="url(#clip0)">
<path fill-rule="evenodd" clip-rule="evenodd" d="M18.0784 21.0436C17.7939 21.044 17.524 20.9177 17.3419 20.6991L14.7879 17.6479C14.7399 17.6112 14.6734 17.6112 14.6254 17.6479C12.5991 18.9213 10.1691 19.389 7.81492 18.9584C3.95081 18.2704 0.909108 15.2742 0.16275 11.4209C-0.392665 8.58461 0.36412 5.64921 2.22166 3.43503C4.0792 1.22083 6.8383 -0.0346277 9.72797 0.0192436C13.263 0.136159 16.4548 2.16632 18.0593 5.31841C18.2519 5.78092 18.0549 6.3137 17.6078 6.53975C17.1607 6.76582 16.615 6.60846 16.3567 6.17919C15.0725 3.64143 12.5039 2.00859 9.661 1.92271C7.35162 1.85297 5.13898 2.85172 3.66359 4.62974C2.15684 6.4098 1.54409 8.77981 1.99926 11.0671C2.59439 14.1358 5.01541 16.5227 8.09229 17.0741C9.97609 17.4137 11.9189 17.0421 13.5445 16.0314C14.3982 15.4893 15.5198 15.6518 16.1845 16.4139L18.7575 19.4846C18.9952 19.7699 19.0462 20.167 18.8884 20.5032C18.7306 20.8394 18.3924 21.0537 18.021 21.0531L18.0784 21.0436ZM11.2775 13.8218L13.2958 9.79487L14.3575 11.9087C14.4942 12.1828 14.7538 12.3748 15.0558 12.4253C15.3601 12.4754 15.67 12.3757 15.8879 12.1574L17.5236 10.5218H20.9575C21.4858 10.5218 21.914 10.0936 21.914 9.56531C21.914 9.03704 21.4858 8.60879 20.9575 8.60879H17.1314C16.8772 8.60732 16.6328 8.70717 16.4523 8.88622L15.4958 9.84274L14.1758 7.20273C14.014 6.87808 13.6824 6.67286 13.3197 6.67286C12.9569 6.67286 12.6254 6.87808 12.4636 7.20273L10.5506 10.9809L8.45578 5.3852C8.3228 5.02901 7.99151 4.78547 7.61187 4.76472C7.23224 4.74397 6.87635 4.9501 6.70536 5.28969L4.79231 9.11577C4.5766 9.5854 4.77291 10.1414 5.23566 10.3714C5.69841 10.6015 6.26023 10.4224 6.50447 9.96698L7.46099 8.10181L9.55577 13.6976C9.68806 14.0535 10.0184 14.2974 10.3975 14.3192H10.4454C10.7959 14.3202 11.1188 14.1293 11.2871 13.8218H11.2775Z" fill="white"/>
</g>
<defs>
<clipPath id="clip0">
<rect width="22" height="21.0435" fill="white"/>
</clipPath>
</defs>
</svg>
