<svg width="14" height="18" viewBox="0 0 14 18" fill="none" xmlns="http://www.w3.org/2000/svg">
<path fill-rule="evenodd" clip-rule="evenodd" d="M6.81818 3.90918C9.31977 3.90918 11.3477 5.93712 11.3477 8.4387C11.3477 9.25965 11.1246 10.0652 10.7022 10.7691L10.4545 11.1819L10.9247 12.5923C11.0893 13.0862 11.4434 13.4945 11.9091 13.7274C12.3548 13.9502 12.6364 14.4058 12.6364 14.9041V15.1819C12.6364 15.7844 12.1479 16.2728 11.5455 16.2728H2.09091C1.48842 16.2728 1 15.7844 1 15.1819L1 14.9041C1 14.4058 1.28155 13.9502 1.72727 13.7274C2.19294 13.4945 2.54704 13.0862 2.71168 12.5923L3.18182 11.1819L2.93415 10.7691C1.64709 8.62403 2.34267 5.84172 4.48776 4.55467C5.19172 4.13229 5.99723 3.90918 6.81818 3.90918Z" stroke="#4B42C6" stroke-width="1.5" stroke-linecap="round" stroke-linejoin="round"/>
<path d="M5.36353 3.90911V3.18184C5.36353 2.37852 6.01475 1.72729 6.81807 1.72729C7.62139 1.72729 8.27262 2.37852 8.27262 3.18184V3.90911" stroke="#4B42C6" stroke-width="1.5" stroke-linecap="round" stroke-linejoin="round"/>
</svg>
