<svg width="22" height="22" viewBox="0 0 22 22" fill="none" xmlns="http://www.w3.org/2000/svg">
<g clip-path="url(#clip0)">
<g clip-path="url(#clip1)">
<path fill-rule="evenodd" clip-rule="evenodd" d="M19.25 19.3066H2.75C1.23122 19.3066 0 18.0754 0 16.5566V12.89C0 11.8775 0.820812 11.0566 1.83333 11.0566H3.66667C4.67919 11.0566 5.5 11.8775 5.5 12.89V14.7233C5.5 15.2296 5.08959 15.64 4.58333 15.64C4.07707 15.64 3.66667 15.2296 3.66667 14.7233V12.89H1.83333V16.5566C1.83333 17.0629 2.24374 17.4733 2.75 17.4733H19.25C19.7563 17.4733 20.1667 17.0629 20.1667 16.5566V4.63997H18.3333V14.7233C18.3333 15.2296 17.9229 15.64 17.4167 15.64C16.9104 15.64 16.5 15.2296 16.5 14.7233V4.63997C16.5 3.62745 17.3208 2.80664 18.3333 2.80664H20.1667C21.1792 2.80664 22 3.62745 22 4.63997V16.5566C22 18.0754 20.7688 19.3066 19.25 19.3066ZM13.75 14.7233V10.14C13.75 9.12745 12.9292 8.30664 11.9167 8.30664H10.0833C9.07081 8.30664 8.25 9.12745 8.25 10.14V14.7233C8.25 15.2296 8.66041 15.64 9.16667 15.64C9.67293 15.64 10.0833 15.2296 10.0833 14.7233V10.14H11.9167V14.7233C11.9167 15.2296 12.3271 15.64 12.8333 15.64C13.3396 15.64 13.75 15.2296 13.75 14.7233Z" fill="white"/>
</g>
</g>
<defs>
<clipPath id="clip0">
<rect width="22" height="17.4167" fill="white" transform="translate(0 2)"/>
</clipPath>
<clipPath id="clip1">
<rect width="22" height="17.4167" fill="white" transform="translate(0 2)"/>
</clipPath>
</defs>
</svg>
