<svg width="22" height="18" viewBox="0 0 22 18" fill="none" xmlns="http://www.w3.org/2000/svg">
<path fill-rule="evenodd" clip-rule="evenodd" d="M10.986 13.6271C10.4721 13.6271 10.0555 13.2105 10.0555 12.6966V5.47592L8.54814 2.4611H2.25793L3.18843 4.32211H7.26404C7.77794 4.32211 8.19454 4.73871 8.19454 5.25261C8.19454 5.76652 7.77794 6.18312 7.26404 6.18312H2.78832C2.33015 6.1841 1.91138 5.92414 1.70893 5.51312L0.127068 2.34945C-0.059611 1.97499 -0.0395145 1.53059 0.180199 1.17451C0.399912 0.818419 0.788042 0.601205 1.20646 0.600098H8.55742C9.26362 0.600473 9.9088 1.00052 10.2231 1.63294L11.9258 5.03856V12.7059C11.9234 12.9527 11.823 13.1884 11.6468 13.3612C11.4705 13.5339 11.2328 13.6296 10.986 13.6271ZM20.2911 14.5576V8.97463C20.2911 8.46072 19.8745 8.04412 19.3605 8.04412C18.8466 8.04412 18.43 8.46072 18.43 8.97463V14.5576C18.43 15.0715 18.0134 15.4881 17.4995 15.4881H4.47253C3.95863 15.4881 3.54203 15.0715 3.54203 14.5576V8.97463C3.54203 8.46072 3.12543 8.04412 2.61152 8.04412C2.09762 8.04412 1.68102 8.46072 1.68102 8.97463V14.5576C1.68102 16.0994 2.93082 17.3492 4.47253 17.3492H17.4995C18.2399 17.3492 18.9499 17.055 19.4735 16.5315C19.997 16.008 20.2911 15.298 20.2911 14.5576ZM20.2911 5.51312L21.8729 2.34945C22.0596 1.97499 22.0395 1.53059 21.8198 1.17451C21.6001 0.818419 21.212 0.601205 20.7936 0.600098H12.847C12.3331 0.600098 11.9165 1.0167 11.9165 1.5306C11.9165 2.0445 12.3331 2.4611 12.847 2.4611H19.7141L18.7836 4.32211H14.708C14.1941 4.32211 13.7775 4.73871 13.7775 5.25261C13.7775 5.76652 14.1941 6.18312 14.708 6.18312H19.1838C19.6446 6.18544 20.0669 5.92561 20.2725 5.51312H20.2911Z" fill="white"/>
</svg>
