<svg width="30" height="40" viewBox="0 0 30 40" fill="none" xmlns="http://www.w3.org/2000/svg">
<path fill-rule="evenodd" clip-rule="evenodd" d="M19.6262 5.64299V25.4206C19.6262 28.1047 17.4505 30.2804 14.7663 30.2804C12.0822 30.2804 9.90654 28.1047 9.90654 25.4206V11.1798L0 16.8224V19.5723V25.2336V26.3533L0.0463551 26.3503C0.61757 33.9835 6.98729 40 14.7663 40C22.9215 40 29.5327 33.3892 29.5327 25.2336V24.3192V16.9641V0L19.6262 5.64299Z" fill="white"/>
<path fill-rule="evenodd" clip-rule="evenodd" d="M19.6259 25.4204C19.6259 28.1045 17.4502 30.2802 14.7661 30.2802C12.082 30.2802 9.90625 28.1045 9.90625 25.4204V39.1812C11.4281 39.7116 13.0633 39.9998 14.7661 39.9998C16.4692 39.9998 18.1036 39.7079 19.6259 39.1774V25.4204Z" fill="#1E135F"/>
</svg>
