<svg width="22" height="22" viewBox="0 0 22 22" fill="none" xmlns="http://www.w3.org/2000/svg">
<g clip-path="url(#clip0)">
<path fill-rule="evenodd" clip-rule="evenodd" d="M11 17.1906C6.60643 17.0948 2.54691 14.8246 0.165 11.1314C0.0580155 10.9782 0.000442567 10.7959 0 10.6089C0 10.4134 0.0573698 10.2222 0.165 10.0589C2.47752 6.29239 6.5802 3.99707 11 3.99707C15.4198 3.99707 19.5225 6.29239 21.835 10.0589C22.0426 10.3268 22.0855 10.6873 21.9466 10.9964C21.8077 11.3054 21.5096 11.5127 21.1714 11.5352C20.8333 11.5577 20.5104 11.3919 20.3317 11.104C18.2885 7.90732 14.7925 5.93265 11 5.83312C7.42925 5.91767 4.10858 7.68508 2.04417 10.5998C4.10858 13.5145 7.42925 15.2819 11 15.3664C13.4704 15.3477 15.858 14.4731 17.7558 12.8915C18.1498 12.6025 18.7011 12.6733 19.0092 13.0524C19.3174 13.4315 19.2741 13.9856 18.9108 14.3123C16.6862 16.1579 13.8905 17.1752 11 17.1906ZM13.75 10.4165C13.75 8.89767 12.5188 7.66645 11 7.66645C10.4937 7.66645 10.0833 8.07686 10.0833 8.58312C10.0833 9.08938 10.4937 9.49978 11 9.49978C11.5063 9.49978 11.9167 9.91019 11.9167 10.4165C11.9167 10.9227 11.5063 11.3331 11 11.3331C10.4937 11.3331 10.0833 10.9227 10.0833 10.4165C10.0833 9.91019 9.67293 9.49978 9.16667 9.49978C8.66041 9.49978 8.25 9.91019 8.25 10.4165C8.25 11.9352 9.48122 13.1665 11 13.1665C12.5188 13.1665 13.75 11.9352 13.75 10.4165Z" fill="white"/>
</g>
<defs>
<clipPath id="clip0">
<rect width="22" height="13.75" fill="white" transform="translate(0 4)"/>
</clipPath>
</defs>
</svg>
