<svg width="16" height="22" viewBox="0 0 16 22" fill="none" xmlns="http://www.w3.org/2000/svg">
<g clip-path="url(#clip0)">
<path fill-rule="evenodd" clip-rule="evenodd" d="M0.879855 21.8241H0.765451C0.532945 21.7956 0.321422 21.6755 0.177719 21.4905C0.034017 21.3055 -0.0300003 21.0708 -0.000144525 20.8385L1.56625 8.29851C1.73146 6.96889 2.86646 5.97388 4.20625 5.9841H11.6599C12.9997 5.97388 14.1346 6.96889 14.2999 8.29851L15.6375 18.8585C15.7285 19.6117 15.4911 20.3677 14.9858 20.9337C14.4805 21.4996 13.7561 21.8208 12.9975 21.8153H4.39986C3.91384 21.8153 3.51986 21.4213 3.51986 20.9353C3.51986 20.4493 3.91384 20.0553 4.39986 20.0553H12.9799C13.2328 20.0571 13.4742 19.9501 13.6426 19.7614C13.8111 19.5728 13.8902 19.3208 13.8599 19.0697L12.5223 8.5097C12.4645 8.06882 12.0869 7.74033 11.6423 7.7441H4.18865C3.74106 7.74087 3.36235 8.07414 3.30865 8.51851L1.75986 21.0497C1.70616 21.4941 1.32745 21.8273 0.879855 21.8241ZM11.4399 4.2241C11.4399 2.28006 9.8639 0.704102 7.91986 0.704102C5.97581 0.704102 4.39986 2.28006 4.39986 4.2241C4.39986 4.71011 4.79384 5.1041 5.27986 5.1041C5.76587 5.1041 6.15986 4.71011 6.15986 4.2241C6.15986 3.25208 6.94783 2.4641 7.91986 2.4641C8.89188 2.4641 9.67986 3.25208 9.67986 4.2241C9.67986 4.71011 10.0738 5.1041 10.5599 5.1041C11.0459 5.1041 11.4399 4.71011 11.4399 4.2241Z" fill="white"/>
</g>
<defs>
<clipPath id="clip0">
<rect width="15.84" height="22" fill="white"/>
</clipPath>
</defs>
</svg>
