<svg width="22" height="22" viewBox="0 0 22 22" fill="none" xmlns="http://www.w3.org/2000/svg">
<g clip-path="url(#clip0)">
<path fill-rule="evenodd" clip-rule="evenodd" d="M10.9998 21.868C10.6072 21.8575 10.2256 21.7356 9.89982 21.5162C7.66257 20.0247 4.9246 19.4825 2.28782 20.0091C1.9587 20.0798 1.61529 19.9961 1.35579 19.7816C1.0963 19.5671 0.949294 19.2456 0.956818 18.9091V1.84805C0.956818 1.24054 1.44931 0.748052 2.05682 0.748052H5.15882C6.09267 0.747172 7.02327 0.858018 7.93082 1.07811C8.31005 1.18421 8.60388 1.48455 8.7016 1.86605C8.79933 2.24753 8.68611 2.65227 8.4046 2.92764C8.12309 3.20302 7.71606 3.30714 7.33682 3.20103C6.53334 3.01211 5.70894 2.9271 4.88382 2.94805H3.15682V17.6442C5.93428 17.3908 8.71539 18.089 11.0438 19.6242C13.3722 18.089 16.1534 17.3908 18.9308 17.6442V3.01412C16.5639 2.75133 14.1801 3.33169 12.1988 4.65311V15.3231C12.1988 15.9306 11.7063 16.4231 11.0988 16.4231C10.4913 16.4231 9.99882 15.9306 9.99882 15.3231V4.12513C9.99621 3.78082 10.155 3.4551 10.4278 3.24507C13.2608 1.1285 16.865 0.327544 20.3278 1.04507C20.8395 1.1603 21.1986 1.62075 21.1858 2.14507V18.9861C21.1933 19.3227 21.0463 19.6442 20.7868 19.8587C20.5273 20.0731 20.1839 20.1569 19.8548 20.0861C17.218 19.5596 14.4801 20.1015 12.2428 21.593C11.8677 21.8131 11.4328 21.9093 10.9998 21.868Z" fill="white"/>
</g>
<defs>
<clipPath id="clip0">
<rect width="22" height="22" fill="white"/>
</clipPath>
</defs>
</svg>
