<svg width="22" height="22" viewBox="0 0 22 22" fill="none" xmlns="http://www.w3.org/2000/svg">
<g clip-path="url(#clip0)">
<path fill-rule="evenodd" clip-rule="evenodd" d="M1.07243 22.0001C0.566167 22.0001 0.155762 21.5897 0.155762 21.0834L0.229083 18.0126C0.229083 17.5063 0.639488 17.0959 1.14575 17.0959C1.65201 17.0959 2.06242 17.5063 2.06242 18.0126V19.1126L4.87659 16.8392L2.05324 15.3451C1.1608 14.8708 0.820502 13.7637 1.29242 12.8701L6.86574 2.33757C7.46229 1.15099 8.65383 0.379754 9.98064 0.321422C11.3075 0.263092 12.5621 0.926791 13.2605 2.05644C13.9589 3.18609 13.9918 4.60506 13.3466 5.76589L9.05659 13.8692C8.90267 14.1591 8.6058 14.3448 8.27783 14.3564C7.94987 14.368 7.64064 14.2038 7.4666 13.9256C7.29256 13.6473 7.28015 13.2974 7.43407 13.0076L11.7241 4.90424C12.1974 4.00816 11.8548 2.89801 10.9587 2.42465C10.0626 1.9513 8.95244 2.29398 8.47908 3.19006L2.88741 13.7501L5.71076 15.2442C6.25386 15.533 6.61594 16.0749 6.67495 16.6871C6.73397 17.2994 6.48202 17.9004 6.00407 18.2876L1.6499 21.7984C1.48617 21.9298 1.28234 22.001 1.07243 22.0001ZM21.0832 21.0834C21.0832 20.5771 20.6728 20.1667 20.1666 20.1667H6.41658C5.91032 20.1667 5.49992 20.5771 5.49992 21.0834C5.49992 21.5897 5.91032 22.0001 6.41658 22.0001H20.1666C20.6728 22.0001 21.0832 21.5897 21.0832 21.0834Z" fill="white"/>
</g>
<defs>
<clipPath id="clip0">
<rect width="21.0833" height="22" fill="white"/>
</clipPath>
</defs>
</svg>
