<svg width="17" height="12" viewBox="0 0 17 12" fill="none" xmlns="http://www.w3.org/2000/svg">
<path d="M0.293117 0C0.131252 0 0 0.131218 0 0.293083V10.8448C0 11.0067 0.131252 11.1379 0.293117 11.1379H3.81035V0H0.293117Z" fill="#FF4B55"/>
<path d="M16.7068 0H13.1896V11.1379H16.7068C16.8687 11.1379 16.9999 11.0067 16.9999 10.8448V0.293083C16.9999 0.131218 16.8687 0 16.7068 0Z" fill="#FF4B55"/>
<path d="M10.2786 6.85582L12.0179 5.86199L11.6188 5.66244C11.5069 5.60646 11.4428 5.4856 11.4593 5.36152L11.5892 4.38794L10.8529 4.60217C10.6902 4.64951 10.5214 4.54944 10.4848 4.38406L10.4143 4.06531L9.72289 4.87447C9.62703 4.98663 9.44445 4.90096 9.46945 4.75553L9.76473 3.03867L9.31267 3.16232C9.18062 3.19844 9.04116 3.13834 8.97678 3.01755L8.50075 2.12535V2.12402L8.50042 2.12469L8.50005 2.12402V2.12535L8.02402 3.01755C7.95957 3.13831 7.82012 3.19841 7.68807 3.16232L7.23598 3.03867L7.53126 4.75553C7.55626 4.9009 7.37364 4.98659 7.27778 4.87447L6.5864 4.06531L6.51587 4.38406C6.47928 4.54947 6.31048 4.64948 6.14782 4.60217L5.41147 4.38794L5.54133 5.36152C5.5579 5.48557 5.49382 5.60646 5.38189 5.66244L4.98279 5.86199L6.72206 6.85586C6.90222 6.95882 6.98118 7.17716 6.9085 7.3715L6.75982 7.76917L8.25013 7.64194C8.33261 7.6349 8.4028 7.70131 8.40038 7.78402L8.35343 9.37922H8.64655L8.59956 7.78395C8.59714 7.70121 8.66733 7.63484 8.74981 7.64187L10.2408 7.76917L10.0921 7.3715C10.0195 7.17713 10.0984 6.95875 10.2786 6.85582Z" fill="#FF4B55"/>
</svg>
