<svg width="24" height="24" viewBox="0 0 24 24" fill="none" xmlns="http://www.w3.org/2000/svg">
<path d="M9.03846 20.1543C8.02308 19.8162 6.92308 18.8865 6.5 18.4639L3.96154 19.7317C1.93077 18.3794 1.14103 16.0692 1 15.0831L3.11538 13.8153C2.77692 12.463 2.97436 10.998 3.11538 10.4345L1 9.16675C1.33846 6.8002 3.11538 5.08165 3.96154 4.51819L6.07692 5.78598C7.09231 4.77174 8.47436 4.23645 9.03846 4.09559V1.56001C11.4077 0.545778 13.9744 1.13741 14.9615 1.56001V4.09559C16.3154 4.43367 17.5 5.36338 17.9231 5.78598L20.0385 4.51819C22.0692 5.8705 22.859 8.1807 23 9.16675L20.8846 10.4345C21.2231 11.7869 21.0256 13.2519 20.8846 13.8153L23 15.0831C22.6615 17.1116 20.8846 19.0273 20.0385 19.7317L17.9231 18.4639C16.9077 19.4781 15.5256 20.0134 14.9615 20.1543V22.5165C12.5923 23.3921 10.0256 22.8814 9.03846 22.5165V20.1543Z" stroke="white" stroke-width="1.5"/>
<path d="M15.4806 12.1249C15.4806 14.0438 13.923 15.6009 11.9998 15.6009C10.0766 15.6009 8.51904 14.0438 8.51904 12.1249C8.51904 10.206 10.0766 8.64893 11.9998 8.64893C13.923 8.64893 15.4806 10.206 15.4806 12.1249Z" stroke="white" stroke-width="1.5"/>
</svg>
